<svg xmlns="http://www.w3.org/2000/svg" viewBox="0 0 24 24" fill="currentColor">
  <path d="M12 23C7.58 23 4 19.42 4 15C4 12.76 4.76 10.72 6.08 9.08C6.38 8.68 6.88 8.56 7.34 8.74C7.8 8.92 8.1 9.38 8.04 9.88C7.92 11.04 8.28 12.22 9.14 13.08C9.28 13.22 9.42 13.34 9.58 13.46C9.58 12.14 9.96 10.86 10.68 9.78C11.6 8.4 12.96 7.38 14.54 6.88L15.54 6.56C16.04 6.4 16.58 6.58 16.88 7.02C17.18 7.46 17.16 8.04 16.82 8.44C16.1 9.3 15.66 10.36 15.58 11.48C15.54 12 15.58 12.52 15.7 13.02C16.34 12.24 16.72 11.28 16.76 10.26C16.78 9.76 17.12 9.34 17.6 9.2C18.08 9.06 18.6 9.24 18.9 9.64C19.94 11 20.5 12.66 20.5 14.38C20.5 19.14 16.64 23 12 23ZM12 21C15.54 21 18.5 18.04 18.5 14.38C18.5 13.44 18.28 12.54 17.86 11.74C17.58 13.22 16.82 14.56 15.68 15.54C15.3 15.86 14.76 15.88 14.36 15.58C13.96 15.28 13.8 14.76 13.96 14.3C14.26 13.42 14.32 12.48 14.14 11.58C14 10.92 13.74 10.3 13.36 9.76C12.82 10.82 12.56 12 12.6 13.2C12.62 13.68 12.34 14.12 11.9 14.3C11.46 14.48 10.94 14.36 10.64 14C9.34 12.52 8.74 10.56 9 8.62C7.58 10.02 6.5 12.38 6.5 15C6.5 18.32 9.18 21 12 21Z"/>
</svg>

