<?xml version="1.0" encoding="UTF-8"?>
<svg id="Layer_1" data-name="Layer 1" xmlns="http://www.w3.org/2000/svg" viewBox="0 0 889.56 940.75">
  <defs>
    <style>
      .cls-1 {
        fill: none;
        stroke: #fff;
        stroke-linecap: round;
        stroke-miterlimit: 10;
        stroke-width: 100px;
      }

      .cls-2 {
        fill: #8f6593;
      }
    </style>
  </defs>
  <rect class="cls-2" y="0" width="889.56" height="889.56" rx="335.59" ry="335.59"/>
  <path class="cls-1" d="m205.31,890.75c9.46-20.77,22.35-51.57,34.22-89.95,17.45-56.45,20.66-92.29,36.11-253.57,7.78-81.21,13.14-162.77,15.49-244.47.67-23.38,11.19-64.04-6.52-101.72-13.36-28.42-35.68-43.52-51.46-51.54-.38,4.24-1.15,17.58,6.11,26.78,0,0,4.95,6.07,14.92,8.48,24.98,6.02,134.97-18.6,134.97-18.6,67.87-15.19,156.72,15.58,197.62,76.6,26.62,39.71,41.94,105.68,13.79,153.19-58.62,98.95-282.31,78.33-283.06,71.82-.4-3.5,61.77-20.14,125.27-15.14,17.52,1.38,181.49,16.61,217.99,133.36,17.05,54.54.84,113.83-28.14,152.93-64.44,86.96-192.42,74.69-208.55,73.01-4.36-.46-7.72-.88-9.88-1.16-42.49-5.42-120.75-29.99-212.79-142.32"/>
</svg>