<?xml version="1.0" encoding="UTF-8"?>
<svg id="Layer_1" data-name="Layer 1" xmlns="http://www.w3.org/2000/svg" viewBox="0 0 1000 1000">
  <defs>
    <style>
      .cls-1 {
        fill: none;
        stroke: #8f6593;
        stroke-linecap: round;
        stroke-miterlimit: 10;
        stroke-width: 50px;
      }
    </style>
  </defs>
  <rect class="cls-1" x="132.77" y="289.16" width="641.19" height="641.19" rx="197.13" ry="197.13"/>
  <path class="cls-1" d="m132.98,540.34c-10.56-65.06-25.72-220.84,68.61-346.69,53.91-71.92,150.77-143.67,196.94-119.08,22.74,12.11,19.68,40.4,54.96,120.6,18.22,41.42,36.51,73.62,48.85,93.98"/>
  <path class="cls-1" d="m190.9,548.98c22.92,2.01,47.46,5.16,73.33,9.89,49.97,9.14,93.94,22.17,131.24,35.9"/>
  <path class="cls-1" d="m412.05,760.8c7.35,3.47,57.99,26.46,103.41,1.3,12.83-7.11,22.05-16.28,28.48-24.42"/>
  <path class="cls-1" d="m704.57,548.98c-22.92,2.01-47.46,5.16-73.33,9.89-49.97,9.14-93.94,22.17-131.24,35.9"/>
  <path class="cls-1" d="m774.79,540.34c8.72-65.06,21.22-220.84-56.61-346.69-44.48-71.92-124.41-143.67-162.51-119.08-18.76,12.11-16.24,40.4-45.35,120.6-15.03,41.42-30.13,73.62-40.31,93.98"/>
</svg>