<?xml version="1.0" encoding="UTF-8"?>
<svg id="Layer_1" data-name="Layer 1" xmlns="http://www.w3.org/2000/svg" viewBox="0 0 1000 1000">
  <defs>
    <style>
      .cls-1 {
        fill: none;
        stroke: #8f6593;
        stroke-linecap: round;
        stroke-miterlimit: 10;
        stroke-width: 50px;
      }
    </style>
  </defs>
  <rect class="cls-1" x="132.77" y="289.16" width="641.19" height="641.19" rx="197.13" ry="197.13"/>
  <path class="cls-1" d="m132.98,540.34c-10.56-65.06-25.72-220.84,68.61-346.69,53.91-71.92,150.77-143.67,196.94-119.08,22.74,12.11,19.68,40.4,54.96,120.6,18.22,41.42,36.51,73.62,48.85,93.98"/>
  <path class="cls-1" d="m447.38,284.99c30.83-23.92,152.85-112.9,297.69-82.44,94.19,19.81,196.58,89.82,190.51,145.03-2.89,26.26-28.62,33.75-88.02,99.09-30.65,33.72-52.74,63.56-66.15,82.72"/>
  <path class="cls-1" d="m190.9,548.98c14.85-8.2,40.46-19.45,73.28-19.85,75.77-.91,124.13,56.82,131.29,65.65"/>
  <path class="cls-1" d="m706.91,548.98c-14.85-8.2-40.46-19.45-73.28-19.85-75.77-.91-124.13,56.82-131.29,65.65"/>
  <path class="cls-1" d="m319.66,685.47c2.49,6.44,8.17,18.38,20.35,27.47,20.62,15.39,50.86,15.9,71.21,4.07,18.64-10.83,19.08-26.25,32.78-27.48,13.79-1.23,17.4,14.01,37.41,25.44,30.09,17.18,71.17,10.84,98.68-5.09,13.68-7.92,22.91-17.57,28.48-24.42"/>
  <path class="cls-1" d="m337.98,720.06c2.44,15.26,11.68,60.2,49.85,88.51,59.88,44.41,162.88,27.06,184.33-23.64,3.52-8.33,10.3-30.45-7.95-67.52"/>
</svg>