<?xml version="1.0" encoding="UTF-8"?>
<svg id="Layer_1" data-name="Layer 1" xmlns="http://www.w3.org/2000/svg" viewBox="0 0 1000 1000">
  <defs>
    <style>
      .cls-1 {
        fill: none;
        stroke: #8f6593;
        stroke-linecap: round;
        stroke-miterlimit: 10;
        stroke-width: 50px;
      }
    </style>
  </defs>
  <rect class="cls-1" x="132.77" y="289.16" width="641.19" height="641.19" rx="197.13" ry="197.13"/>
  <path class="cls-1" d="m516,284.79c36.11-14.79,177.51-67.82,308.9.34,85.44,44.32,165.33,139.21,144.68,190.77-10.81,27-45.64,23.62-111.35,71.88-32,23.5-54.82,46.95-68.7,62.52"/>
  <path class="cls-1" d="m313.72,800.16c2.08-8.28,5.8-19.32,12.73-27.47,15.46-18.18,30.85-3.1,63.83-.22,44.41,3.87,61.28-19.57,86.38,3.28,8.57,7.8,14.35,17.58,17.82,24.42"/>
  <path class="cls-1" d="m336.09,575.06c5.06-23.81,10.4-67.62-6.13-124.09-13.61,13.57-32.78,29.9-58.21,44.43-17.25,9.85-33.52,16.66-47.49,21.45-5.7,16.79-15.85,55.03.32,93.26,4.77,11.29,11.36,26.26,27.26,33.89,23,11.04,47.22-2.05,49.02-3.06,23.63-13.26,29.89-40.72,35.23-65.87Z"/>
  <path class="cls-1" d="m458.4,575.06c-5.06-23.81-10.4-67.62,6.13-124.09,13.61,13.57,32.78,29.9,58.21,44.43,17.25,9.85,33.52,16.66,47.49,21.45,5.7,16.79,15.85,55.03-.32,93.26-4.77,11.29-11.36,26.26-27.26,33.89-23,11.04-47.22-2.05-49.02-3.06-23.63-13.26-29.89-40.72-35.23-65.87Z"/>
  <path class="cls-1" d="m307.32,284.79c-20.37-12.48-100.41-56.51-181.87,18.97-52.97,49.08-105.73,147.95-96.68,197.81,4.74,26.1,25.44,20.66,61.22,64.53,17.42,21.36,29.44,43.23,36.67,57.82"/>
</svg>